<?xml version="1.0" encoding="UTF-8"?>
<svg width="1725px" height="848px" viewBox="0 0 1725 848" version="1.1" xmlns="http://www.w3.org/2000/svg" xmlns:xlink="http://www.w3.org/1999/xlink">
    <!-- Generator: Sketch 61.1 (89650) - https://sketch.com -->
    <title>编组 10</title>
    <desc>Created with Sketch.</desc>
    <g id="页面-1" stroke="none" stroke-width="1" fill="none" fill-rule="evenodd">
        <g id="登录界面-右侧精简" transform="translate(-64.000000, -117.000000)">
            <g id="编组-10" transform="translate(0.000000, 117.000000)">
                <polygon id="多边形" fill="#FFFFFF" opacity="0.100000001" points="1722 123 1747.98076 138 1747.98076 168 1722 183 1696.01924 168 1696.01924 138"></polygon>
                <polygon id="多边形备份-2" fill="#FFFFFF" opacity="0.0709356414" points="1100 289 1125.98076 304 1125.98076 334 1100 349 1074.01924 334 1074.01924 304"></polygon>
                <polygon id="多边形备份-15" stroke="#FFFFFF" opacity="0.0709356414" points="802 203 827.980762 218 827.980762 248 802 263 776.019238 248 776.019238 218"></polygon>
                <polygon id="多边形备份-13" fill="#FFFFFF" opacity="0.0709356414" points="752.5 596 760.727241 600.75 760.727241 610.25 752.5 615 744.272759 610.25 744.272759 600.75"></polygon>
                <polygon id="多边形备份-12" fill="#FFFFFF" opacity="0.0709356414" points="732 304 744.990381 311.5 744.990381 326.5 732 334 719.009619 326.5 719.009619 311.5"></polygon>
                <polygon id="多边形备份-10" fill="#FFFFFF" opacity="0.0709356414" points="732 0 757.980762 15 757.980762 45 732 60 706.019238 45 706.019238 15"></polygon>
                <polygon id="多边形备份-11" fill="#FFFFFF" opacity="0.0709356414" points="661 788 686.980762 803 686.980762 833 661 848 635.019238 833 635.019238 803"></polygon>
                <polygon id="多边形备份-8" stroke="#FFFFFF" opacity="0.0709356414" points="1663.5 428 1680.3875 437.75 1680.3875 457.25 1663.5 467 1646.6125 457.25 1646.6125 437.75"></polygon>
                <polygon id="多边形备份-4" stroke="#FFFFFF" opacity="0.0709356414" points="496 633 521.980762 648 521.980762 678 496 693 470.019238 678 470.019238 648"></polygon>
                <polygon id="多边形备份" fill="#FFFFFF" opacity="0.200000003" points="1771.5 673 1788.3875 682.75 1788.3875 702.25 1771.5 712 1754.6125 702.25 1754.6125 682.75"></polygon>
                <polygon id="多边形备份-5" fill="#FFFFFF" opacity="0.100000001" points="1240.5 712 1248.72724 716.75 1248.72724 726.25 1240.5 731 1232.27276 726.25 1232.27276 716.75"></polygon>
                <polygon id="多边形备份-14" fill="#FFFFFF" opacity="0.100000001" points="1547.5 663 1555.72724 667.75 1555.72724 677.25 1547.5 682 1539.27276 677.25 1539.27276 667.75"></polygon>
                <polygon id="多边形备份-9" fill="#FFFFFF" opacity="0.100000001" points="72.5 577 80.7272413 581.75 80.7272413 591.25 72.5 596 64.2727587 591.25 64.2727587 581.75"></polygon>
                <polygon id="多边形备份-7" fill="#FFFFFF" opacity="0.100000001" points="223.5 674 231.727241 678.75 231.727241 688.25 223.5 693 215.272759 688.25 215.272759 678.75"></polygon>
                <polygon id="多边形备份-6" fill="#FFFFFF" opacity="0.100000001" points="902.5 654 919.387495 663.75 919.387495 683.25 902.5 693 885.612505 683.25 885.612505 663.75"></polygon>
                <polygon id="多边形备份-3" fill="#FFFFFF" opacity="0.100000001" points="235.5 112 266.243902 129.75 266.243902 165.25 235.5 183 204.756098 165.25 204.756098 129.75"></polygon>
                <polygon id="多边形备份-3" stroke="#FFFFFF" opacity="0.100000001" points="201.5 244 218.387495 253.75 218.387495 273.25 201.5 283 184.612505 273.25 184.612505 253.75"></polygon>
            </g>
        </g>
    </g>
</svg>