<?xml version="1.0" encoding="UTF-8"?>
<svg width="50px" height="30px" viewBox="0 0 50 30" version="1.1" xmlns="http://www.w3.org/2000/svg" xmlns:xlink="http://www.w3.org/1999/xlink">
    <!-- Generator: Sketch 61.1 (89650) - https://sketch.com -->
    <title>形状结合</title>
    <desc>Created with Sketch.</desc>
    <g id="设计稿v1.0" stroke="none" stroke-width="1" fill="none" fill-rule="evenodd">
        <g id="首页-展开配置" transform="translate(-1242.000000, -328.000000)" fill="#007AFF">
            <g id="编组-28" transform="translate(1160.000000, 64.000000)">
                <g id="编组-27备份-2" transform="translate(24.000000, 232.000000)">
                    <path d="M108,32 L108,62 L58,62 L58,32 L108,32 Z M107,39 L59,39 L59,61 L107,61 L107,39 Z M107,33 L59,33 L59,38 L107,38 L107,33 Z M105,35 L105,36 L104,36 L104,35 L105,35 Z M67.6852207,35 L67.6852207,35.9980806 L60,35.9980806 L60,35 L67.6852207,35 Z M70.6794626,35 L70.6794626,35.9980806 L69.6794626,35.9980806 L69.6794626,35 L70.6794626,35 Z M72.6756238,35 L72.6756238,35.9980806 L71.6756238,35.9980806 L71.6756238,35 L72.6756238,35 Z M74.671785,35 L74.671785,35.9980806 L73.671785,35.9980806 L73.671785,35 L74.671785,35 Z M76.6679463,35 L76.6679463,35.9980806 L75.6679463,35.9980806 L75.6679463,35 L76.6679463,35 Z M78.6641075,35 L78.6641075,35.9980806 L77.6641075,35.9980806 L77.6641075,35 L78.6641075,35 Z" id="形状结合"></path>
                </g>
            </g>
        </g>
    </g>
</svg>