<?xml version="1.0" encoding="UTF-8"?>
<svg width="50px" height="30px" viewBox="0 0 50 30" version="1.1" xmlns="http://www.w3.org/2000/svg" xmlns:xlink="http://www.w3.org/1999/xlink">
    <!-- Generator: Sketch 61.1 (89650) - https://sketch.com -->
    <title>形状结合</title>
    <desc>Created with Sketch.</desc>
    <g id="设计稿v1.0" stroke="none" stroke-width="1" fill="none" fill-rule="evenodd">
        <g id="首页-展开配置" transform="translate(-1300.000000, -328.000000)" stroke="#C5C6CF">
            <g id="编组-28" transform="translate(1160.000000, 64.000000)">
                <g id="编组-27备份-2" transform="translate(24.000000, 232.000000)">
                    <g id="编组-30" transform="translate(116.000000, 32.000000)">
                        <path d="M8.5,8.5 L0.5,8.5 L0.5,29.5 L8.5,29.5 L8.5,8.5 Z M49.5,8.5 L10.5,8.5 L10.5,29.5 L49.5,29.5 L49.5,8.5 Z M0.5,8.5 L8.5,8.5 L8.5,29.5 L0.5,29.5 L0.5,8.5 Z M10.5,8.5 L49.5,8.5 L49.5,29.5 L10.5,29.5 L10.5,8.5 Z M49.5,0.5 L0.5,0.5 L0.5,6.5 L49.5,6.5 L49.5,0.5 Z M0.5,0.5 L49.5,0.5 L49.5,6.5 L0.5,6.5 L0.5,0.5 Z M46.5,3.5 L46.5,4 L47,3.5 L46.5,3.5 L47,3.5 L46.5,3 L46.5,3.5 L46.5,3 L46,3.5 L46.5,3.5 L46,3.5 L46.5,4 L46.5,3.5 Z M9.5,3.49808061 L9.5,3.5 L9.99808061,3.5 L10,3.49808061 L9.99808061,3.49808061 L9.5,3 L9.5,3.49808061 L2.5,3.49808061 L2.5,3 L2.00191939,3.49808061 L2,3.49808061 L2.00191939,3.5 L2.5,3.5 L2.5,3.49808061 L2.00191939,3.49808061 L2,3.5 L2.00191939,3.5 L2.5,3.99808061 L2.5,3.5 L9.5,3.5 L9.5,3.99808061 L9.99808061,3.5 L10,3.5 L9.99808061,3.49808061 L9.5,3.49808061 Z" id="形状结合"></path>
                    </g>
                </g>
            </g>
        </g>
    </g>
</svg>