<?xml version="1.0" encoding="UTF-8"?>
<svg width="50px" height="30px" viewBox="0 0 50 30" version="1.1" xmlns="http://www.w3.org/2000/svg" xmlns:xlink="http://www.w3.org/1999/xlink">
    <!-- Generator: Sketch 61.1 (89650) - https://sketch.com -->
    <title>形状结合</title>
    <desc>Created with Sketch.</desc>
    <g id="设计稿v1.0" stroke="none" stroke-width="1" fill="none" fill-rule="evenodd">
        <g id="首页-展开配置" transform="translate(-1242.000000, -328.000000)" stroke="#C5C6CF">
            <g id="编组-28" transform="translate(1160.000000, 64.000000)">
                <g id="编组-27备份-2" transform="translate(24.000000, 232.000000)">
                    <path d="M107.5,32.5 L58.5,32.5 L58.5,61.5 L107.5,61.5 L107.5,32.5 Z M58.5,38.5 L107.5,38.5 L107.5,61.5 L58.5,61.5 L58.5,38.5 Z M58.5,32.5 L107.5,32.5 L107.5,38.5 L58.5,38.5 L58.5,32.5 Z M104.5,35.5 L104.5,36 L105,35.5 L104.5,35.5 L105,35.5 L104.5,35 L104.5,35.5 L104.5,35 L104,35.5 L104.5,35.5 L104,35.5 L104.5,36 L104.5,35.5 Z M67.1852207,35.4980806 L67.1852207,35.5 L67.6833013,35.5 L67.6852207,35.4980806 L67.6833013,35.4980806 L67.1852207,35 L67.1852207,35.4980806 L60.5,35.4980806 L60.5,35 L60.0019194,35.4980806 L60,35.4980806 L60.0019194,35.5 L60.5,35.5 L60.5,35.4980806 L60.0019194,35.4980806 L60,35.5 L60.0019194,35.5 L60.5,35.9980806 L60.5,35.5 L67.1852207,35.5 L67.1852207,35.9980806 L67.6833013,35.5 L67.6852207,35.5 L67.6833013,35.4980806 L67.1852207,35.4980806 Z M70.1794626,35.4990403 L70.1794626,35.9980806 L70.6775432,35.5 L70.6794626,35.5 L70.6775432,35.4980806 L69.681382,35.4980806 L69.6794626,35.5 L69.681382,35.5 L70.1794626,35.9980806 L70.1794626,35.4990403 Z M70.6775432,35.5 L70.6794626,35.4980806 L70.6775432,35.4980806 L70.1794626,35 L70.1794626,35.4990403 L70.1794626,35 L69.681382,35.4980806 L69.6794626,35.4980806 L69.681382,35.5 L70.6775432,35.5 Z M72.1756238,35.4990403 L72.1756238,35.9980806 L72.6737044,35.5 L72.6756238,35.5 L72.6737044,35.4980806 L71.6775432,35.4980806 L71.6756238,35.5 L71.6775432,35.5 L72.1756238,35.9980806 L72.1756238,35.4990403 Z M72.6737044,35.5 L72.6756238,35.4980806 L72.6737044,35.4980806 L72.1756238,35 L72.1756238,35.4990403 L72.1756238,35 L71.6775432,35.4980806 L71.6756238,35.4980806 L71.6775432,35.5 L72.6737044,35.5 Z M74.171785,35.4990403 L74.171785,35.9980806 L74.6698656,35.5 L74.671785,35.5 L74.6698656,35.4980806 L73.6737044,35.4980806 L73.671785,35.5 L73.6737044,35.5 L74.171785,35.9980806 L74.171785,35.4990403 Z M74.6698656,35.5 L74.671785,35.4980806 L74.6698656,35.4980806 L74.171785,35 L74.171785,35.4990403 L74.171785,35 L73.6737044,35.4980806 L73.671785,35.4980806 L73.6737044,35.5 L74.6698656,35.5 Z M76.1679463,35.4990403 L76.1679463,35.9980806 L76.6660269,35.5 L76.6679463,35.5 L76.6660269,35.4980806 L75.6698656,35.4980806 L75.6679463,35.5 L75.6698656,35.5 L76.1679463,35.9980806 L76.1679463,35.4990403 Z M76.6660269,35.5 L76.6679463,35.4980806 L76.6660269,35.4980806 L76.1679463,35 L76.1679463,35.4990403 L76.1679463,35 L75.6698656,35.4980806 L75.6679463,35.4980806 L75.6698656,35.5 L76.6660269,35.5 Z M78.1641075,35.4990403 L78.1641075,35.9980806 L78.6621881,35.5 L78.6641075,35.5 L78.6621881,35.4980806 L77.6660269,35.4980806 L77.6641075,35.5 L77.6660269,35.5 L78.1641075,35.9980806 L78.1641075,35.4990403 Z M78.6621881,35.5 L78.6641075,35.4980806 L78.6621881,35.4980806 L78.1641075,35 L78.1641075,35.4990403 L78.1641075,35 L77.6660269,35.4980806 L77.6641075,35.4980806 L77.6660269,35.5 L78.6621881,35.5 Z" id="形状结合"></path>
                </g>
            </g>
        </g>
    </g>
</svg>