<?xml version="1.0" encoding="UTF-8"?>
<svg width="50px" height="30px" viewBox="0 0 50 30" version="1.1" xmlns="http://www.w3.org/2000/svg" xmlns:xlink="http://www.w3.org/1999/xlink">
    <!-- Generator: Sketch 61.1 (89650) - https://sketch.com -->
    <title>形状结合</title>
    <desc>Created with Sketch.</desc>
    <g id="设计稿v1.0" stroke="none" stroke-width="1" fill="none" fill-rule="evenodd">
        <g id="首页-展开配置" transform="translate(-1300.000000, -328.000000)" fill="#007AFF">
            <g id="编组-28" transform="translate(1160.000000, 64.000000)">
                <g id="编组-27备份-2" transform="translate(24.000000, 232.000000)">
                    <g id="编组-30" transform="translate(116.000000, 32.000000)">
                        <path d="M9,8 L9,30 L-2.46913601e-13,30 L-2.46913601e-13,8 L9,8 Z M50,8 L50,30 L10,30 L10,8 L50,8 Z M8,9 L1,9 L1,29 L8,29 L8,9 Z M49,9 L11,9 L11,29 L49,29 L49,9 Z M50,0 L50,7 L-2.30926389e-13,7 L-2.30926389e-13,0 L50,0 Z M49,1 L1,1 L1,6 L49,6 L49,1 Z M47,3 L47,4 L46,4 L46,3 L47,3 Z M10,3 L10,3.99808061 L2,3.99808061 L2,3 L10,3 Z" id="形状结合"></path>
                    </g>
                </g>
            </g>
        </g>
    </g>
</svg>