<?xml version="1.0" encoding="UTF-8"?>
<svg width="50px" height="30px" viewBox="0 0 50 30" version="1.1" xmlns="http://www.w3.org/2000/svg" xmlns:xlink="http://www.w3.org/1999/xlink">
    <!-- Generator: Sketch 61.1 (89650) - https://sketch.com -->
    <title>形状结合</title>
    <desc>Created with Sketch.</desc>
    <g id="设计稿v1.0" stroke="none" stroke-width="1" fill="none" fill-rule="evenodd">
        <g id="首页-展开配置" transform="translate(-1184.000000, -328.000000)" fill="#C5C6CF">
            <g id="编组-28" transform="translate(1160.000000, 64.000000)">
                <g id="编组-27备份-2" transform="translate(24.000000, 232.000000)">
                    <g id="编组-32" transform="translate(0.000000, 32.000000)">
                        <path d="M50,0 L50,30 L0,30 L0,0 L50,0 Z M7,1 L1,1 L1,29 L7,29 L7,1 Z M49,7 L8,7 L8,29 L49,29 L49,7 Z M49,1 L8,1 L8,6 L49,6 L49,1 Z M6,3 L6,4.99616123 L2,4.99616123 L2,3 L6,3 Z M47,3 L47,4 L46,4 L46,3 L47,3 Z" id="形状结合"></path>
                    </g>
                </g>
            </g>
        </g>
    </g>
</svg>