<?xml version="1.0" encoding="UTF-8"?>
<svg width="120px" height="120px" viewBox="0 0 120 120" version="1.1" xmlns="http://www.w3.org/2000/svg" xmlns:xlink="http://www.w3.org/1999/xlink">
    <!-- Generator: Sketch 61.1 (89650) - https://sketch.com -->
    <title>编组 17</title>
    <desc>Created with Sketch.</desc>
    <g id="设计稿v1.0" stroke="none" stroke-width="1" fill="none" fill-rule="evenodd">
        <g id="介绍页" transform="translate(-1210.000000, -2216.000000)">
            <g id="优势" transform="translate(360.000000, 1539.000000)">
                <g id="编组-3备份-3" transform="translate(620.000000, 631.000000)">
                    <g id="编组-17" transform="translate(230.000000, 46.000000)">
                        <circle id="椭圆形" fill="#FFFAEE" cx="60" cy="60" r="60"></circle>
                        <g id="离线" transform="translate(30.000000, 30.000000)" fill-rule="nonzero">
                            <rect id="矩形" fill="#000000" opacity="0" x="0" y="0" width="60" height="60"></rect>
                            <path d="M43.5976408,23.5585673 L51.3953539,19.8025339 L53.9947116,22.4584931 L46.1966387,26.2148863 L43.5976408,23.5585673 Z M38.399645,18.2459293 L48.7967158,7.62137273 L51.3953539,10.277332 L40.9982832,20.902608 L38.399645,18.2459293 Z M33.2013495,12.9340107 L36.8767976,4.9642742 L39.476515,7.62137268 L35.7995679,15.58997 L33.2013495,12.9340107 Z M37.1436766,45.9744893 L39.2051389,48.4854069 C40.6957882,50.004537 43.100218,49.9970421 44.5788755,48.4647809 L48.6130003,44.3148146 C50.0916578,42.7863309 50.0800257,40.299397 48.5912351,38.787762 L46.5252158,36.2761249 C45.4701112,35.2018932 43.9509812,34.6524257 42.6241407,35.1108149 L38.4385586,30.7771931 C41.40109,27.7194463 46.2220014,27.7055957 49.1961649,30.7423567 L53.9623335,36.008886 C56.9402745,39.0520028 56.9548446,43.9977496 53.9934524,47.0592739 L47.2892179,53.9918336 C44.3311835,57.0425052 39.5128503,57.0600732 36.5304724,54.0203142 L31.7658028,48.7533652 C28.7916393,45.706471 28.7781485,40.7645017 31.7313262,37.7071146 L35.9300395,41.9549346 C35.5859327,43.2615687 36.1365394,44.9456469 37.1436766,45.9744893 Z M24.1221252,17.8358673 C24.545678,16.5007525 24.0261902,14.9714893 22.9924311,13.9153055 L21.4429617,11.3747679 C19.9714393,9.88076086 17.6097006,9.88783611 16.1588043,11.3927558 L12.2067039,15.4749081 C10.7538889,16.9790483 10.7603046,19.3988876 12.2220534,20.8962524 L13.7715229,23.4408672 L16.8690228,25.637298 C17.8513968,26.6384393 16.3682423,24.9907564 17.6190543,24.6384353 L21.7060632,28.8341506 C18.7985745,31.8390732 14.0714395,31.8525641 11.1456032,28.8656293 L6.94988789,23.622664 C4.01919492,20.6357291 4.00756277,15.7814803 6.91726998,12.7806949 L13.4975687,5.97063193 C16.4102739,2.97284443 21.1411863,2.95185867 24.0599474,5.93537584 L28.2665153,11.1884143 C31.1882144,14.1685737 31.1983475,19.0299577 28.2934971,22.028105 L24.1221252,17.8358673 Z M14.191718,36.3840516 L6.39400488,40.1404448 L3.79464727,37.4841258 L11.5927202,33.7277326 L14.191718,36.3840516 Z M19.3897138,41.0123136 L8.99300273,51.6380094 L6.39400488,48.9820502 L16.7910756,38.3563544 L19.3897138,41.0123136 Z M24.5880093,46.3253115 L21.0969363,54.2942685 L18.4987179,51.6379495 L21.9878722,43.6685728 L24.5880093,46.3253115 Z" id="形状" fill="#EEB01C"></path>
                        </g>
                    </g>
                </g>
            </g>
        </g>
    </g>
</svg>