<?xml version="1.0" encoding="UTF-8"?>
<svg width="120px" height="120px" viewBox="0 0 120 120" version="1.1" xmlns="http://www.w3.org/2000/svg" xmlns:xlink="http://www.w3.org/1999/xlink">
    <!-- Generator: Sketch 61.1 (89650) - https://sketch.com -->
    <title>编组 13</title>
    <desc>Created with Sketch.</desc>
    <g id="设计稿v1.0" stroke="none" stroke-width="1" fill="none" fill-rule="evenodd">
        <g id="介绍页" transform="translate(-590.000000, -1736.000000)">
            <g id="优势" transform="translate(360.000000, 1539.000000)">
                <g id="编组-3" transform="translate(0.000000, 151.000000)">
                    <g id="编组-13" transform="translate(230.000000, 46.000000)">
                        <circle id="椭圆形" fill="#F4F7FE" cx="60" cy="60" r="60"></circle>
                        <g id="服务-耳机-2" transform="translate(30.000000, 28.000000)" fill-rule="nonzero">
                            <rect id="矩形" fill="#000000" opacity="0" x="0" y="0" width="60" height="60"></rect>
                            <path d="M52.5,26.5875 L52.5,26.25 C52.5,13.8375 42.4125,3.75 30,3.75 C17.5875,3.75 7.5,13.8375 7.5,26.25 L7.5,26.5875 C5.325,27.375 3.75,29.4375 3.75,31.875 L3.75,39.375 C3.75,42.4875 6.2625,45 9.375,45 C12.4875,45 15,42.4875 15,39.375 L15,31.875 C15,29.4375 13.425,27.375 11.25,26.5875 L11.25,26.25 C11.25,15.9 19.65,7.5 30,7.5 C40.35,7.5 48.75,15.9 48.75,26.25 L48.75,26.5875 C46.575,27.375 45,29.4375 45,31.875 L45,39.375 C45,42.4875 47.5125,45 50.625,45 C53.7375,45 56.25,42.4875 56.25,39.375 L56.25,31.875 C56.25,29.4375 54.675,27.375 52.5,26.5875 Z M37.5,56.1 L37.5,54.375 C37.5,53.325 36.675,52.5 35.625,52.5 L28.125,52.5 C27.075,52.5 26.25,53.325 26.25,54.375 L26.25,58.125 C26.25,59.175 27.075,60 28.125,60 L35.625,60 C44.9625,60 52.5,53.2875 52.5,45 L50.625,45 L48.75,45 C48.75,50.6625 43.8375,55.3125 37.5,56.1 Z" id="形状" fill="#4856FC"></path>
                        </g>
                    </g>
                </g>
            </g>
        </g>
    </g>
</svg>