<?xml version="1.0" encoding="utf-8"?>
<!-- Generator: Adobe Illustrator 16.0.0, SVG Export Plug-In . SVG Version: 6.00 Build 0)  -->
<!DOCTYPE svg PUBLIC "-//W3C//DTD SVG 1.1//EN" "http://www.w3.org/Graphics/SVG/1.1/DTD/svg11.dtd">
<svg version="1.1" xmlns="http://www.w3.org/2000/svg" xmlns:xlink="http://www.w3.org/1999/xlink" x="0px" y="0px" width="398px"
	 height="359px" viewBox="0 0 398 359" enable-background="new 0 0 398 359" xml:space="preserve">
<metadata><?xpacket begin="﻿" id="W5M0MpCehiHzreSzNTczkc9d"?>
<x:xmpmeta xmlns:x="adobe:ns:meta/" x:xmptk="Adobe XMP Core 5.3-c011 66.145661, 2012/02/06-14:56:27        ">
   <rdf:RDF xmlns:rdf="http://www.w3.org/1999/02/22-rdf-syntax-ns#">
      <rdf:Description rdf:about=""
            xmlns:xmp="http://ns.adobe.com/xap/1.0/"
            xmlns:xmpGImg="http://ns.adobe.com/xap/1.0/g/img/">
         <xmp:CreatorTool>Adobe Illustrator CS6 (Macintosh)</xmp:CreatorTool>
         <xmp:CreateDate>2018-05-03T09:21:11+08:00</xmp:CreateDate>
         <xmp:Thumbnails>
            <rdf:Alt>
               <rdf:li rdf:parseType="Resource">
                  <xmpGImg:width>256</xmpGImg:width>
                  <xmpGImg:height>232</xmpGImg:height>
                  <xmpGImg:format>JPEG</xmpGImg:format>
                  <xmpGImg:image>/9j/4AAQSkZJRgABAgEASABIAAD/7QAsUGhvdG9zaG9wIDMuMAA4QklNA+0AAAAAABAASAAAAAEA&#xA;AQBIAAAAAQAB/+4ADkFkb2JlAGTAAAAAAf/bAIQABgQEBAUEBgUFBgkGBQYJCwgGBggLDAoKCwoK&#xA;DBAMDAwMDAwQDA4PEA8ODBMTFBQTExwbGxscHx8fHx8fHx8fHwEHBwcNDA0YEBAYGhURFRofHx8f&#xA;Hx8fHx8fHx8fHx8fHx8fHx8fHx8fHx8fHx8fHx8fHx8fHx8fHx8fHx8fHx8f/8AAEQgA6AEAAwER&#xA;AAIRAQMRAf/EAaIAAAAHAQEBAQEAAAAAAAAAAAQFAwIGAQAHCAkKCwEAAgIDAQEBAQEAAAAAAAAA&#xA;AQACAwQFBgcICQoLEAACAQMDAgQCBgcDBAIGAnMBAgMRBAAFIRIxQVEGE2EicYEUMpGhBxWxQiPB&#xA;UtHhMxZi8CRygvElQzRTkqKyY3PCNUQnk6OzNhdUZHTD0uIIJoMJChgZhJRFRqS0VtNVKBry4/PE&#xA;1OT0ZXWFlaW1xdXl9WZ2hpamtsbW5vY3R1dnd4eXp7fH1+f3OEhYaHiImKi4yNjo+Ck5SVlpeYmZ&#xA;qbnJ2en5KjpKWmp6ipqqusra6voRAAICAQIDBQUEBQYECAMDbQEAAhEDBCESMUEFURNhIgZxgZEy&#xA;obHwFMHR4SNCFVJicvEzJDRDghaSUyWiY7LCB3PSNeJEgxdUkwgJChgZJjZFGidkdFU38qOzwygp&#xA;0+PzhJSktMTU5PRldYWVpbXF1eX1RlZmdoaWprbG1ub2R1dnd4eXp7fH1+f3OEhYaHiImKi4yNjo&#xA;+DlJWWl5iZmpucnZ6fkqOkpaanqKmqq6ytrq+v/aAAwDAQACEQMRAD8A9U4q7FXYq7FXYq7FXYq7&#xA;FXYq7FVks0USlpGCgb74qkV15mMzNDpcZuHGxlG0a/N+n3VyYh3sDLuQyafNdurancNcMN0jQska&#xA;HxUA1qP5icN1yRXejY7nVrDY11G1HjRbhR89lk/A/PBQLLcJlY6pZXoPoSVkX+8hb4ZFP+Uh+IZE&#xA;ikg2isCXYq7FXYq7FXYq7FXYq7FXYq7FXYq7FXYq7FXYq7FXYq7FXYq7FXYq7FXYq7FVG6vbS1Qv&#xA;PKsajqWIGEBBKSTeZprmqaVbtKOn1h/gjH0nr9AyYh3seLuQbadNdNz1Kc3B6+gtViH0dW+k4b7k&#xA;V3o5ERFCIoVF2CqKAfQMCVSH+8H0/qwJRWBKGutPtbkh5EpKn93OhKSL/quKHCCghalxrdltUajb&#xA;js1I5wPn9h/ppjQK7hG2euaddSeiHMNz3t5wY5PoDdforgMSkSCPyKXYq7FXYq7FXYq7FXYq7FXY&#xA;q7FXYq7FXYq7FXYq7FXYq7FXYqpz3NvAheaRY0HVnIA/HGltKZvNenVKWiyXsg7QqSv0saLk+Ase&#xA;MIOW/wDMF5sPT0+I+H72T+Cj8cNAIslSj0i1DiWctdTD/dk550+S/ZH3YbRSNwJdirsVUf0hDHKA&#xA;gaYru/pjlxHicaW0dBcQTpzicOvenUfMYKSq4EuxVSuLW2uU9O4iWVPBgDT5YQUEIZLO+tf94Lx0&#xA;QdLees0dPAEnmv8AwWNg80Urprd7BtfWL0HWa1PrL/wB4uPuOPD3J4kZaazpd2eMFyjSd4ieLj/Y&#xA;NRvwyJiQkEIzAl2KuxV2KuxV2KuxV2KuxV2KuxV2Kpdf65BaQrII2lZ3WNUWgJLmg3NBkhG2Jkof&#xA;4guP+rbP/wAHD/zXh4fNeJTOv6iR8GmH/ZzoP+Ih8eEd68RU31TzBJ9iO1gB8TJKR93AY8IRZUHT&#xA;V5/96NSkC/yQIsX4/E344du5d1NNH08P6kkZnk7yTMZD/wAMThsopGKqqoVQFUdANhgS3irsVdiq&#xA;Ge+i5cIQZpP5U6D5npjS2t+r3M+9w/BP98x/xbDaEZaxxxsqxqFUV2HyyJSF0+nxSP6sZMM/+/E2&#xA;J+Y742mlP6ze221zH60Y/wB3RDf/AGS/0w0i0TBc2868oXDjvTqPmMFJtVwJdirsVULmytLkUuIU&#xA;lA6c1DU+VcIKCFBdKWGn1S5uLUD9lJCyf8DJzXG0UqK2vxfZu4Zx2E0PE/8ABRso/wCFx2TuvXUt&#xA;bUfvLOCT3jnYfg0f8caC2Vw1m/Bo2mSEeKSwkfiy4OHzW3fp2VZYUlsJYlmkWIOzxEAuaD7LMceF&#xA;eJNsiydirsVdirsVdirsVYprH91bf8xUH/ExlsWso3Al2KuxV2KuxV2KqMt5bRbPIK/yjc/cMaW1&#xA;P6zcy/3EBA/nl+Efd1w0h31JpN7mUyf5A+FPuHXG1pEJGka8UUKvgNsCV2Kr4f7wfT+rAlFYEuxV&#xA;DT6fbTNz4lJe0sZ4t94w2ilLhqcH2GW6jH7LfA/39Pvx2Ru2uqQAhbhXt3/4sGx+TDbGk2i0kjkX&#xA;kjB18VNR+GBV2KXYq7FXYq7FUHfqWksQP+WqI/cScIQU9yDJ2KuxV2KuxV2KuxVi2sUW3iJFeNxC&#xA;fukXLItZReKVk8npQvJSvAE06dMVUhPdkVFv16fGMVa9S/PSFF/1nr+oYq7hqDfalSP/AFFLf8Sw&#xA;7Ia+ohv76WSXxUmi/cMbWlaK3gi/u0C+4G/34EqmKuxV2KuxVfD/AHg+n9WBKKwJdirsVdirTKrC&#xA;jAEHqDviqFfS7Nm5Khif+aMlD+G2G0Ut+p3qf3V4xH8sqh/x2ONopuurL1WGQexZT+Ncdk7ti41A&#xA;dbQH3Eg/iMaC7txXcxuFhlg9MspYHkG+zTwHvjS2isCUFqDEXOmgHZrtAflwc/wwjqxKfZBm7FXY&#xA;q7FXYq7FXYqxbWwTagjtPCT/AMjVGWRayi8UqN7/ALyTf6h/ViFKpF/dJ/qj9WKrsVdirsVdirsV&#xA;dirsVdiq+H+8H0/qwJRWBLsVdirsVdirsVdirsVdiqDf/jqxf8Ym/wCJDD0R1RmBKDvVDXmmA/8A&#xA;LUD90Uhwjqgp7kGTsVdirsVdirsVdirFtf2sZabUkip/yOXLI82uSLxSpXYrazf6jfqxCldCawof&#xA;FR+rFV+KuxV2KuxV2KuxV2KuxVfD/eD6f1YEorAl2KuxV2KuxV2KuxV2KuxVCMAdVTxELH/hgMPR&#xA;HVF4EoS5Utf6YB/y0E/dDIcPQoKeZBk7FXYq7FXYq7FXYqxjzAeNhcEfsspH0SDLI82uSJxSpXQr&#xA;bTD/ACG/UcQpbt/954v9Rf1YqqYq7FXYq7FXYq7FXYq7FV8P94Pp/VgSisCXYq7FXYq7FXYq7FXY&#xA;q7FUGR/uXB/5dz/xMYeiOqMwJQs1f0rpnh6shP8AyIkw9CjqE7yDJ2KuxV2KuxV2KuxVjHmKi6fe&#xA;GleNT9zVyyPNrkicUqdx/cSf6jfqxVq1/wB5Yf8AUX9QxKhVxV2KuxV2KuxV2KuxV2Kr4f7wfT+r&#xA;AlFYEuxV2KuxV2KuxV2KuxV2KoMH/csR2+rj/iZw9EdUZgShnLfpjTgOlZifojI/jh6I6p1kGTsV&#xA;dirsVdirsVdirG/MQH1C/HX4HP8AHLIsJKqNyRW8QDirUv8AdP8A6p/ViqnZGtpD/qD9WJUK2Kux&#xA;V2KuxV2KuxV2KuxVfD/eD6f1YEorAl2KuxV2KuxV2KuxV2KuxVBoSdVk9oVH/DHD0R1RmBKXXV9b&#xA;Wus2L3EyRRLHOXLEDeiBckBsxJ3Rn+KtC7XBYeKxSsPvCEZHgKeIKsHmPQ524JeRh+nFyYzX5OFx&#xA;4SvEExBBAINQdwRkWTsVdirsVdirH9dUm1v1HUxSU+lDk4sJLbY8raInclFNfowlQvYVUgdxiqjY&#xA;f7xxf6uJUK+KuxV2KuxV2KuxV2KuxVfD/eD6f1YEorAl2KuxV2KuxV2KuxV2KuxVAGeKG9uppnCR&#xA;Rxx8nOwHXJMUP697f/EGeztD9kCgmkHjU19Mfj8sapHNVt7OytjyhgRXPWRhyc/N2q2JKaRPrv7Y&#xA;KTbpDBMvCeJZEPUMAw+44qoJp72x9TS5jbHqYDV4G+aH7PzWmG+9FdyZadqouXa3nj+r3sYq8JNQ&#xA;y/zxt+0v6u+RIZAo/IpdirsVSTWF5LdKf2o2G3umTiwKE05uWn2reMMZ+9RhPNQiMVQ2nf7xxjwq&#xA;PuY4lQicVdirsVdirsVdirsVdiq+H+8H0/qwJRWBLsVdirsVdirsVdirsVdiqQxxLf38t629qrAW&#xA;6HozRjj6h+mvH78nyDDmj5JI40aSRgqKKsx2AGBKHtnvb+6+rwL9Wj9P1RPKpZiteI4x1Wlf8r7s&#xA;Tsgbo4+XrilTqErN8o1H0UU4OJlwoSWx1S1PwzCYdkmUCvyeMD/iJw2EUW7S+DuYypinQVeF+tPE&#xA;EbMPcYkKCirm3W6iVkYxTxnlDMv2kfx+XiO4wJKP0y+a7tyZFCXMTencRjoHArtX9lgaj2yJFJBR&#xA;eBLsVSvUVrO4/mA/VTJBiUp0Yk6Va1rURqN/YUycubEckZgShrD+4K/yu4/4Y4lQicVdirsVdirs&#xA;VdirsVdiq+H+8H0/qwJRWBLsVdirsVdirsVdirsVQOsSutn6UZ4y3LiBGHUc/tH6EBOGLEtRxrGi&#xA;xoKKoCqo7AbDCqjHALy9YyfFbWjBQnZ5huSfEJ+v5Y3S80dp61166f8AktoVr/rSSH+GA8kjmnGQ&#xA;ZNOiupVhUHFUg1TTyxoh4zxfFby+B9/Y9CMmCwIdp12JokkpxLVWRD1V1NGH0EYSFBV0b6tq0Eo2&#xA;S7Bgl/11BeM/gw+kYOieqc5Bk7FUu1EUnB8VH6zkgxKS6PtZen3ikljP+xkbJliEbgSh7PY3C+Er&#xA;H76HEqERirsVdirsVdirsVdirsVXw/3g+n9WBKKwJdirsVdirsVdirsVdiqW6jvqNih6ATSD5qFX&#xA;/jc5IcmJ5omKg5OeiCuBKnoyn9F2zndpUEznxaX42/FsZc0DkiNH+LUdSen2TDFX/VTn/wAzMEuQ&#xA;SOabZFk7FUHqSDgj9waffhCCkVp8F7exD7PNJB7F0ofxWuWFgEbfsfq0UooGjmgep8BKvL8K5EMi&#xA;nmQZOxVA6ku8bfMZIIKRaf8ABPfQnqs5cfKRVb9ZOTLAI3AlDQ/Dezr/ADhHH3UP6sVROKuxV2Ku&#xA;xV2KuxV2KuxVfD/eD6f1YEorAl2KuxV2KuxV2KuxV2KpZf8A/HVsv+MU/wCuPJDkxPNFL/cS/wCq&#xA;f1HAlZpH/HJsv+MEX/EBieajkitAq0F1MR/fXUpHyjIi/wCZeCSxTPIsnYqhtQ/uP9kMIQWPwf8A&#xA;HTvP9WL9TZZ0YdUVqH/HNb5p/wATGRHNJ5J/kGbsVQ2oLWCv8pB/hhCCx1f3esyDtcQK/wDso2Kn&#xA;8HGWdGHVG4EoaX4L2F+zhoz/AMSGKonFXYq7FXYq7FXYq7FXYqvh/vB9P6sCUVgS7FXYq7FXYq7F&#xA;XYq7FUsv/wDjq2X/ABin/XHkhyYnmil/uJf9U/qOBKjp0qQ6HayuaJHbRsx9ljBOJ5oHJMtDhaHS&#xA;LRH/ALwxh5P9Z/jb8WyMubKPJHYEuxVDah/cf7IYQgsfg/46d5/qxfqbLOjDqitQ/wCOa3zT/iYy&#xA;I5pPJP8AIM3YqsmTnE69yNvnirGNS/dz2dz2jl9N/wDVmHH/AIlxy0NZRmBKHvlJty67tERIv+x6&#xA;/hiFKujBlDL0YAj5HFW8VdirsVdirsVdirsVXw/3g+n9WBKKwJdirsVdirsVdiqXajcytdRWELmM&#xA;yKZJ5V+0sYNKLXux79skAxJUxpWkftQFyerO7sx+ZLY2VoKkFjpkEnqRQcXoRyqTsfmcbK0EUJIg&#xA;COJodiMCUD+iNFpx+qinSlTSn34bKKDf6L0j/lm/4Zv642VoO/Rekf8ALN/wzf1xsrQd+i9I/wCW&#xA;b/hm/rjZWg46Vo56234t/XGytBWtrXT7bl6EPDnTlSu9OnU4klVWY280LQyJyiYUZT3GBKEGl6P/&#xA;AMs/4t/XDZRQXsDpKi7tXf6opH1m2ZmdeBNC6cieJXrtsRjzXkyLK2aQ6xZmWG4txsXBMZ8G6qfo&#xA;OTiWBChY3H1m0in6F1BYeDDZh9BwkKFcgEEHcHqMVQ1kSqvbt9qFqD3U7qcSoROKuxV2KuxV2Kux&#xA;V2Kr4f7wfT+rAlFYEuxV2KuxV2KuxVJp/wDlJD/zBr/ydbJjkw6ozAl2KuxV2KuxV2KuxV2KuxV2&#xA;KuxVS1b/AI4d5/xif9WI5qeTI8rZoLUYtlkHbY/wwhBSC0/0e/ubU7JIfrEHyY0cfQ2/05YeTAI7&#xA;AlC3P7meO5H2f7uX5HofoOIQUVil2KuxV2KuxV2KuxVfD/eD6f1YEorAl2KuxV2KuxV2KpNP/wAp&#xA;If8AmDX/AJOtkxyYdUZgS7FXYq7FWmZVBZiABuSegxVBNremKaesW90R3H3qpGHhKOIIi2vLW5Um&#xA;CRZKfaA6j5jqMBCbVsVdirsVdiqjq3/HDvP+MT/qxHNTyZJlbNbLGJI2Q9GGKsZ1eGSNUukFZrNi&#xA;xUdWj6SL92+WRayiI5EkRZEPJHAZWHcHcYpbdFdGRhVWFCMVQ9o7KWtpDWSL7J/mTscSoROKuxV2&#xA;KuxV2KuxVfD/AHg+n9WBKKwJdirsVdirsVdiqTT/APKSH/mDX/k62THJh1RmBLsVdirsVYj5l1iV&#xA;7xrSI0hh2b/Kfrv/AKuWRDXIpQuoXSmpbkPAgZKmNpja3Rek8B9O4j7/AMD4qciQyBZbY3S3VpFc&#xA;KKcxuvgRsR9BGVkNgKvirsVdiqjq3/HDvP8AjE/6sRzU8mSZWzdiqB1GDf1QNjs+SBQUgsv9EuXs&#xA;G/uzWS0P+QT8Sf7An7smd92AR+BKhdQM4WSLaaPdD4+Kn54hSvt51mj5rsejKeoI6g4qqYq7FXYq&#xA;7FXYqvh/vB9P6sCUVgS7FXYq7FXYq7FUjaaOXzLJwNfTtQjH3EhP8cn0YdUfgS7FXYq7FXnuroya&#xA;pdhhQmV2+hjUfgcuHJqPNCYUIvTGIuCOxU1wFIZj5fUjTEYigdnZfkXNMqlzbI8kxwJdirsVUdW/&#xA;44d5/wAYn/ViOankyTK2bsVaZVZSrbg7HFWP6vpzuvFDxuIj6ltL4MPH2PQ5ZEsCFOyu1uYedOEi&#xA;krLGequOoOJCgq+KoWeKSOQ3EAq3+7Y/5gP44UK8M0c0YdDUHqO4PgcCV+KuxV2KuxVfD/eD6f1Y&#xA;EorAl2KuxV2KuxVA3FxJPKbS1NGH9/N2QeA/ysIDElAehHBr4ijFEWyX/k625yXRHVMMCXYq7FXY&#xA;qkXmTRBco15CQs0akyA9GVRX7xkoyYyiw/LWtONB0qS8kcV9OMBTK37XBq0C/Pj1yEiyiGZxokaL&#xA;Gg4ogCqo7AbDK2xdirsVdiqjq3/HDvP+MT/qxHNTyZJlbN2KuxVSubcTR06MPsnCCgsav7ea2uDe&#xA;wISw+G7gHV0H7Q/yl/EZYCwKJhmimiWWJg0biqsO4wJX4qhprd0kM9ttIftxn7L/ANuNoX29zHMC&#xA;B8Mi/bjPUY0m1bFXYq7FV8P94Pp/VgSisCXYq7FWiQASTQDqTiqBa4mvGMdoSkA2kufH2T+uSqmP&#xA;NF29vFBGI4loo+8nxOAlKVT/APKSH/mDX/k62SHJj1RmBLsVdirsVUL/AP3huf8AjE//ABE4hS89&#xA;t954wf5l/XlzSy3y7/vTef6sX/G+VybIp5kWTsVdirsVUdW/44d5/wAYn/ViOankyTK2bsVdirsV&#xA;Q13aiUc1/vB+OEFBDGriGbTpnuYELWrmtzbAbqe8iD/iQywbsOSNiljmjWWJg8biqsOhGBK/FVGe&#xA;1jlIapSVfsyLsRja0pC5mgPG6Wq9p1G3+yHbDSLRSsrqGUhlPQjcYEt4qvh/vB9P6sCUVgS7FUNc&#xA;38EB4byTH7MSbsf6YQEWoi1ubshrw8Iuq2yH/ibd8N0ikcqqqhVACjYAbAZFLeKUmmI/xI3tZrX/&#xA;AJGtkxyYdUZgS7FXYq7FVO4i9WCSKtPURlr4VFMVefNbzWl4sdwpjZHHKvgD1HtlzSy3y9BKqz3L&#xA;qUWbiIwwoSqV+KnvyyuTZFOMiydirsVdiqjq3/HDvP8AjE/6sRzU8mSZWzdirsVdirsVQ91aLKOS&#xA;7SePj88IKCGOXFjc2Mzz2a1VjWezOwY/zR+DfgcsBthVK9peQXUfOJq0NHQ7Mrdww7HAQkFWxVxA&#xA;IodweoxVCtYhWL2zmFz1A3U/NcbRTX1q4i2uIiR/vyP4h9I6jDS2ibW6tpHDJIpArXelNvfAQkFf&#xA;JqlsG4Q8riT+WIV/HpgpNrPS1G5/vXFrEf2IzVyPdu30Ydkbom3tLe3FIkAJ6t1Y/MnASmlbAl2K&#xA;pfc380rPb6eA8iHjNcHeOL/mp/8AJH05IDvYk9yWW1qlvrzqGLs9qHkkY1ZmMhqx+7JXsxA3TbIs&#xA;nYq7FXYq7FWiqmhIBp0xVvFXYq7FXYq7FVHVv+OHef8AGJ/1Yjmp5Mkytm7FXYq7FXYq7FVOaCOZ&#xA;aMN+zDqMbVIdS0RhL9YhYwXI2E6CoYfyyL3GWCTAxQkepNE4g1BBbzHZJP8AdT/6rdvkcNdyLR+B&#xA;LsVdiqwWVrNKDJErHrXp99MbWkdHHHGvGNQi+Cig/DIpXYpdiqjdXdtax+pPIEXoK9SfBQNyfYYQ&#xA;EEqMVpqOpUMwexsT+xWk8o96f3a/8N8sbARRKYy20FtYehbxiOJKBUUUA3yN7sq2Y8446+GOwkte&#xA;Ke5SSp/4llnRh1R+BLsVdirsVdirsVdirsVdirsVdiqjq3/HFuV/adCiDxZzxUfSTiOankyTK2bs&#xA;VdirsVdirsVdiriARQ7jwxVBXelW88bLxBVvtRsKqckCghIZdK1CwP8AoT1i/wCWWYkr/sH3K/LJ&#xA;2CwqmotWg5iK6VrSc9El2U/6r/ZONLaOwJXw/wB4Pp/VgSisCVG5u7a2j9S4lWJPFjSvy8cICCUO&#xA;k2p321jB6EJ/4+7kFdvFItmb/ZUx2CNyj7HRbW2l+sSM1zeUobmWhYeyD7KD5YDJkIphkUtMqspV&#xA;twdjiqUX+hm4ChXKsh5RSqaOp/V88mJMTFDDSfMCin1i3en7TRsCfnRwMPEEUW/0X5g/37bf8i3/&#xA;AOqmPEFou/RfmD/ftt/yLf8A6qY8QWi79F+YP9+23/It/wDqpjxBaLv0X5g/37bf8i3/AOqmPEFo&#xA;u/RfmD/ftt/yLf8A6qY8QWi79F+YP9+23/It/wDqpjxBaLv0X5g/37bf8i3/AOqmPEFou/RfmD/f&#xA;tt/yLf8A6qY8QWi79F+YP9+23/It/wDqpjxBaLa6VrxPxT2yj/jHIf8AmZg4gtFF2mjSiWOa+nFw&#xA;0J5QxIvCNW/mIJYs3hU7YDJICaZFk7FXYq7FXYq7FXYq7FXYq4gMKEVB7HFUFdaTaXCFGUFT1RgG&#xA;X7jhEkEJNL5burbfT53hUf7q/vYv+BbcfRk+LvY8LULa7Cw9aw9fsJLdgASelVkKkY7Lui0sdeut&#xA;5ZI9PiP7Mf76X5cmAQfccFhNFGWehadayCYIZ7n/AJaJyZJPoLdPopgMikRCYZFLsVdirsVdirsV&#xA;dirsVdirsVdirsVdirsVdirsVdir/9k=</xmpGImg:image>
               </rdf:li>
            </rdf:Alt>
         </xmp:Thumbnails>
      </rdf:Description>
      <rdf:Description rdf:about=""
            xmlns:xmpTPg="http://ns.adobe.com/xap/1.0/t/pg/"
            xmlns:stDim="http://ns.adobe.com/xap/1.0/sType/Dimensions#"
            xmlns:xmpG="http://ns.adobe.com/xap/1.0/g/">
         <xmpTPg:MaxPageSize rdf:parseType="Resource">
            <stDim:w>14.040556</stDim:w>
            <stDim:h>12.664722</stDim:h>
            <stDim:unit>Centimeters</stDim:unit>
         </xmpTPg:MaxPageSize>
         <xmpTPg:NPages>1</xmpTPg:NPages>
         <xmpTPg:HasVisibleTransparency>False</xmpTPg:HasVisibleTransparency>
         <xmpTPg:HasVisibleOverprint>False</xmpTPg:HasVisibleOverprint>
         <xmpTPg:PlateNames>
            <rdf:Seq>
               <rdf:li>Cyan</rdf:li>
               <rdf:li>Magenta</rdf:li>
               <rdf:li>Yellow</rdf:li>
            </rdf:Seq>
         </xmpTPg:PlateNames>
         <xmpTPg:SwatchGroups>
            <rdf:Seq>
               <rdf:li rdf:parseType="Resource">
                  <xmpG:groupName>默认色板组</xmpG:groupName>
                  <xmpG:groupType>0</xmpG:groupType>
               </rdf:li>
            </rdf:Seq>
         </xmpTPg:SwatchGroups>
      </rdf:Description>
      <rdf:Description rdf:about=""
            xmlns:dc="http://purl.org/dc/elements/1.1/">
         <dc:format>image/svg+xml</dc:format>
      </rdf:Description>
   </rdf:RDF>
</x:xmpmeta>
                                                                                                    
                                                                                                    
                                                                                                    
                                                                                                    
                                                                                                    
                                                                                                    
                                                                                                    
                                                                                                    
                                                                                                    
                                                                                                    
                                                                                                    
                                                                                                    
                                                                                                    
                                                                                                    
                                                                                                    
                                                                                                    
                                                                                                    
                                                                                                    
                                                                                                    
                                                                                                    
                           
<?xpacket end="w"?>
	</metadata>
<g id="图层_1" display="none">
	<path display="inline" fill="none" d="z"/>
	
		<image display="inline" overflow="visible" enable-background="new    " width="398" height="359" id="组_2" xlink:href="73566A08D2644499.png" >
	</image>
</g>
<g id="图层_2">
	<path fill-rule="evenodd" clip-rule="evenodd" fill="#E7EBEF" d="M294.907,180.199c-3.567,35.201-18.651,138.131-144.572,178.58
		v0.006c-0.003,0-0.006-0.002-0.01-0.004c-0.004,0.002-0.007,0.004-0.01,0.004v-0.006C24.395,318.33,9.311,215.4,5.744,180.199
		C2.177,144.997,1,46.72,1,46.72C70.846,50.806,150.056,2.504,150.322,2.341V2.338l0.003,0.001l0.004-0.001v0.003
		c0.267,0.163,79.476,48.465,149.321,44.379C299.65,46.72,298.475,144.997,294.907,180.199z"/>
	<path fill="#E7EBEF" d="M375.726,213.651h-12.977V187.7c0-28.536-23.366-51.849-51.849-51.849
		c-28.483,0-52.024,23.313-52.024,51.849v25.951h-13.291c-7.152,0.033-12.77,5.824-12.803,12.977v103.751
		c0.033,7.154,5.824,12.943,12.977,12.977h129.914c7.152-0.033,12.943-5.822,12.975-12.977V226.632
		c0.016-3.437-1.34-6.738-3.764-9.176C382.457,215.021,379.163,213.651,375.726,213.651L375.726,213.651z M278.46,187.7
		c0-18.145,14.242-32.439,32.44-32.439c18.197,0,32.438,14.242,32.438,32.439v25.951H278.46V187.7z"/>
	<path fill-rule="evenodd" clip-rule="evenodd" fill="#A3B1BF" d="M303.511,178.861c-3.567,35.201-18.651,138.131-144.572,178.58
		v0.006c-0.003,0-0.006-0.002-0.01-0.004c-0.004,0.002-0.007,0.004-0.01,0.004v-0.006C32.999,316.992,17.914,214.062,14.347,178.861
		C10.78,143.659,9.604,45.382,9.604,45.382C79.449,49.468,158.659,1.167,158.926,1.003V1l0.003,0.001L158.933,1v0.003
		c0.267,0.163,79.476,48.465,149.321,44.379C308.254,45.382,307.078,143.659,303.511,178.861z"/>
	<path fill-rule="evenodd" clip-rule="evenodd" fill="#E5E9EE" d="M301.332,178.867c-3.514,34.67-18.37,136.049-142.394,175.889
		v0.006c-0.003,0-0.006-0.002-0.01-0.004c-0.004,0.002-0.007,0.004-0.01,0.004v-0.006C34.896,314.916,20.039,213.537,16.526,178.867
		c-3.514-34.672-4.672-131.468-4.672-131.468c68.793,4.024,146.81-43.549,147.072-43.71V3.686l0.003,0.001l0.004-0.001v0.003
		c0.263,0.161,78.278,47.735,147.071,43.71C306.004,47.399,304.846,144.194,301.332,178.867z"/>
	<path fill-rule="evenodd" clip-rule="evenodd" fill="#F0F2F5" d="M158.938,354.755v0.007c0.003-0.001,0.007-0.002,0.01-0.003
		c0.003,0.001,0.006,0.002,0.01,0.003v-0.007c124.005-39.833,138.862-141.2,142.374-175.865
		c3.514-34.667,4.672-131.451,4.672-131.451C237.22,51.463,159.214,3.896,158.951,3.735V3.732c0,0-0.003,0.001-0.003,0.001
		c0,0-0.003-0.001-0.003-0.001v0.003C158.945,3.735,158.591,354.309,158.938,354.755z"/>
	<path fill-rule="evenodd" clip-rule="evenodd" fill="#C2CBD5" d="M277.477,178.926c-2.929,28.896-15.31,113.387-118.673,146.59
		v0.005c-0.002,0-0.005-0.002-0.008-0.003c-0.003,0.001-0.005,0.003-0.008,0.003v-0.005
		C55.424,292.312,43.042,207.821,40.114,178.926C37.186,150.029,36.22,69.358,36.22,69.358
		c57.334,3.354,122.354-36.295,122.573-36.429v-0.003l0.002,0.001l0.003-0.001v0.003c0.219,0.134,65.238,39.783,122.571,36.429
		C281.37,69.358,280.405,150.029,277.477,178.926z M275.298,178.932c-2.875,28.365-15.029,111.305-116.495,143.898v0.005
		c-0.002,0-0.005-0.002-0.008-0.003c-0.003,0.001-0.005,0.003-0.008,0.003v-0.005C57.322,290.236,45.167,207.297,42.292,178.932
		C39.418,150.565,38.47,71.375,38.47,71.375c56.281,3.293,120.108-35.628,120.323-35.76v-0.003l0.002,0.001l0.003-0.001v0.003
		c0.215,0.131,64.041,39.053,120.322,35.76C279.12,71.375,278.173,150.565,275.298,178.932z"/>
</g>
<g id="图层_3">
	<path fill="#A3B1BF" d="M384.077,211.984h-12.977v-25.951c0-28.536-23.366-51.849-51.849-51.849
		c-28.483,0-52.024,23.313-52.024,51.849v25.951h-13.291c-7.152,0.033-12.77,5.824-12.803,12.977v103.751
		c0.033,7.154,5.824,12.943,12.977,12.977h129.914c7.152-0.033,12.943-5.822,12.975-12.977V224.965
		c0.016-3.437-1.34-6.738-3.764-9.176C390.809,213.354,387.515,211.984,384.077,211.984L384.077,211.984z M286.812,186.033
		c0-18.145,14.242-32.439,32.44-32.439c18.197,0,32.438,14.242,32.438,32.439v25.951h-64.879V186.033z"/>
	<g>
		<g>
			<path fill="#E5E9EE" d="M384.565,214.358H369.33v-27.29c0-28.141-22.022-50.163-50.163-50.163s-50.162,22.104-50.162,50.163
				v27.29h-15.408c-5.522,0-10,4.478-10,10V329.39c0,5.522,4.478,10,10,10h130.969c5.522,0,10-4.478,10-10V224.358
				C394.565,218.836,390.088,214.358,384.565,214.358z M353.622,214.451h-68.915v-28.155c0-19.274,15.128-34.458,34.458-34.458
				s34.457,15.127,34.457,34.458V214.451z"/>
		</g>
	</g>
	<path fill="none" d="M320.737,245.102c-11.024,0-19.466,8.439-19.466,19.466c-0.008,6.955,3.691,13.386,9.706,16.878v18.776
		c0,5.361,4.345,9.706,9.706,9.706c5.359,0,9.704-4.345,9.704-9.706v-18.776c5.855-3.218,9.706-9.706,9.706-16.878
		C340.146,253.541,331.707,245.102,320.737,245.102L320.737,245.102z"/>
	<g>
		<g>
			<path fill-rule="evenodd" clip-rule="evenodd" fill="#A3B1BF" d="M338.597,265c0-10.787-8.737-19.531-19.516-19.531
				s-19.516,8.744-19.516,19.531c0,7.23,3.936,13.528,9.771,16.904v18.893c0,5.394,4.373,9.766,9.766,9.766
				c5.394,0,9.766-4.372,9.766-9.766V281.88C334.679,278.497,338.597,272.213,338.597,265z"/>
		</g>
	</g>
	<g>
		<g>
			<path fill-rule="evenodd" clip-rule="evenodd" fill="#BEC8D2" d="M321.206,287.012v20.863c3.285-1.097,5.656-4.191,5.656-7.845
				v-18.358C325.907,284.217,323.816,286.201,321.206,287.012z M318.565,247c-5.364,0-10.163,2.375-13.442,6.117
				c2.516-1.351,5.389-2.12,8.442-2.12c9.883,0,17.895,8.019,17.895,17.909c0,4.393-1.601,8.396-4.224,11.512
				c-0.012,0.057-0.03,0.111-0.043,0.168c5.52-3.049,9.263-8.923,9.263-15.68C336.456,255.017,328.446,247,318.565,247z"/>
		</g>
	</g>
	<g>
		<g>
			<path fill="#F0F2F5" d="M384.572,214.358h-15.225v-27.383c0-28.141-22.022-50.163-50.163-50.163
				c-10.726,0-20.557,3.218-28.624,8.746c6.516-3.046,13.834-4.746,21.624-4.746c28.141,0,50.163,22.022,50.163,50.163v23.383
				h-8.708h-8.364h-60.551v-28.155c0-7.159,2.09-13.751,5.704-19.213c-6.931,6.022-11.253,14.932-11.253,25.014v22.354h-25.579
				c-3.406,0-6.411,1.707-8.217,4.309c0.72-0.165,1.466-0.26,2.234-0.26h31.562v0.036h66.1v-0.036h33.308c5.522,0,10,4.478,10,10
				v105.031c0,2.116-0.662,4.076-1.784,5.692c4.449-1.014,7.773-4.986,7.773-9.742v-105.03
				C394.572,218.836,390.095,214.358,384.572,214.358z"/>
		</g>
	</g>
</g>
</svg>
